<svg xmlns="http://www.w3.org/2000/svg" id="wikipedia" viewBox="0 12.279999732971191 542.0900268554688 48.05000305175781" data-asc="1.00537109375" width="542.0900268554688" height="48.05000305175781"><defs/><g><g fill="#000000"><g transform="translate(0, 0)"><path d="M44.95 13.92L35.50 50.27L30.05 50.27L22.41 20.09L14.94 50.27L9.62 50.27L0 13.92L4.96 13.92L12.60 44.14L20.12 13.92L25.02 13.92L32.62 44.43L40.21 13.92L44.95 13.92ZM56.64 18.43L51.46 18.43L51.46 13.67L56.64 13.67L56.64 18.43M56.35 50.27L51.76 50.27L51.76 23.00L56.35 23.00L56.35 50.27ZM90.19 50.27L84.13 50.27L73.19 38.33L70.21 41.16L70.21 50.27L65.63 50.27L65.63 12.28L70.21 12.28L70.21 36.65L83.47 23.00L89.26 23.00L76.59 35.60L90.19 50.27ZM99.95 18.43L94.78 18.43L94.78 13.67L99.95 13.67L99.95 18.43M99.66 50.27L95.07 50.27L95.07 23.00L99.66 23.00L99.66 50.27ZM132.74 36.30Q132.74 39.62 131.79 42.37Q130.83 45.12 129.10 47.02Q127.49 48.83 125.31 49.82Q123.12 50.81 120.68 50.81Q118.55 50.81 116.83 50.34Q115.11 49.88 113.33 48.90L113.33 60.33L108.74 60.33L108.74 23.00L113.33 23.00L113.33 25.85Q115.16 24.32 117.44 23.28Q119.73 22.24 122.31 22.24Q127.25 22.24 129.99 25.96Q132.74 29.69 132.74 36.30M128.00 36.43Q128.00 31.49 126.32 29.05Q124.63 26.61 121.14 26.61Q119.17 26.61 117.16 27.47Q115.16 28.32 113.33 29.71L113.33 45.17Q115.28 46.04 116.69 46.36Q118.09 46.68 119.87 46.68Q123.71 46.68 125.85 44.09Q128.00 41.50 128.00 36.43ZM162.72 37.11L142.63 37.11Q142.63 39.62 143.38 41.49Q144.14 43.36 145.46 44.56Q146.73 45.73 148.47 46.31Q150.22 46.90 152.32 46.90Q155.10 46.90 157.92 45.79Q160.74 44.68 161.94 43.60L162.18 43.60L162.18 48.61Q159.86 49.58 157.45 50.24Q155.03 50.90 152.37 50.90Q145.58 50.90 141.77 47.23Q137.96 43.55 137.96 36.79Q137.96 30.10 141.61 26.17Q145.26 22.24 151.22 22.24Q156.74 22.24 159.73 25.46Q162.72 28.69 162.72 34.62L162.72 37.11M158.25 33.59Q158.23 29.98 156.43 28.00Q154.64 26.03 150.98 26.03Q147.29 26.03 145.10 28.20Q142.92 30.37 142.63 33.59L158.25 33.59ZM191.80 50.27L187.21 50.27L187.21 47.41Q185.23 49.12 183.08 50.07Q180.93 51.03 178.42 51.03Q173.54 51.03 170.67 47.27Q167.80 43.51 167.80 36.84Q167.80 33.37 168.79 30.66Q169.78 27.95 171.46 26.05Q173.12 24.19 175.33 23.22Q177.54 22.24 179.91 22.24Q182.06 22.24 183.72 22.69Q185.38 23.14 187.21 24.10L187.21 12.28L191.80 12.28L191.80 50.27M187.21 43.55L187.21 27.91Q185.35 27.08 183.89 26.76Q182.42 26.44 180.69 26.44Q176.83 26.44 174.68 29.13Q172.53 31.81 172.53 36.74Q172.53 41.60 174.19 44.13Q175.85 46.66 179.52 46.66Q181.47 46.66 183.47 45.79Q185.47 44.92 187.21 43.55ZM205.76 18.43L200.59 18.43L200.59 13.67L205.76 13.67L205.76 18.43M205.47 50.27L200.88 50.27L200.88 23.00L205.47 23.00L205.47 50.27ZM235.74 50.27L231.18 50.27L231.18 47.36Q230.57 47.78 229.53 48.52Q228.49 49.27 227.51 49.71Q226.37 50.27 224.88 50.65Q223.39 51.03 221.39 51.03Q217.70 51.03 215.14 48.58Q212.57 46.14 212.57 42.36Q212.57 39.26 213.90 37.34Q215.23 35.42 217.70 34.33Q220.19 33.23 223.68 32.84Q227.17 32.45 231.18 32.25L231.18 31.54Q231.18 29.98 230.63 28.96Q230.08 27.93 229.05 27.34Q228.08 26.78 226.71 26.59Q225.34 26.39 223.85 26.39Q222.05 26.39 219.82 26.87Q217.60 27.34 215.23 28.25L214.99 28.25L214.99 23.58Q216.33 23.22 218.87 22.78Q221.41 22.34 223.88 22.34Q226.76 22.34 228.89 22.81Q231.03 23.29 232.59 24.44Q234.13 25.56 234.94 27.34Q235.74 29.13 235.74 31.76L235.74 50.27M231.18 43.55L231.18 35.96Q229.08 36.08 226.23 36.33Q223.39 36.57 221.73 37.04Q219.75 37.60 218.53 38.78Q217.31 39.97 217.31 42.04Q217.31 44.38 218.73 45.57Q220.14 46.75 223.05 46.75Q225.46 46.75 227.47 45.81Q229.47 44.87 231.18 43.55ZM288.94 39.89Q288.94 42.02 287.95 44.09Q286.96 46.17 285.18 47.61Q283.23 49.17 280.63 50.05Q278.03 50.93 274.37 50.93Q270.43 50.93 267.30 50.20Q264.16 49.46 260.91 48.02L260.91 41.97L261.25 41.97Q264.01 44.26 267.63 45.51Q271.24 46.75 274.41 46.75Q278.91 46.75 281.41 45.07Q283.91 43.38 283.91 40.58Q283.91 38.16 282.73 37.01Q281.54 35.86 279.13 35.23Q277.29 34.74 275.16 34.42Q273.02 34.11 270.63 33.62Q265.80 32.59 263.46 30.11Q261.13 27.64 261.13 23.66Q261.13 19.09 264.99 16.17Q268.85 13.26 274.78 13.26Q278.61 13.26 281.81 13.99Q285.01 14.72 287.48 15.80L287.48 21.51L287.13 21.51Q285.06 19.75 281.68 18.59Q278.30 17.43 274.76 17.43Q270.87 17.43 268.52 19.04Q266.16 20.65 266.16 23.19Q266.16 25.46 267.33 26.76Q268.51 28.05 271.46 28.74Q273.02 29.08 275.90 29.57Q278.78 30.05 280.79 30.57Q284.84 31.64 286.89 33.81Q288.94 35.99 288.94 39.89ZM319.17 37.11L299.07 37.11Q299.07 39.62 299.83 41.49Q300.59 43.36 301.90 44.56Q303.17 45.73 304.92 46.31Q306.67 46.90 308.76 46.90Q311.55 46.90 314.37 45.79Q317.19 44.68 318.38 43.60L318.63 43.60L318.63 48.61Q316.31 49.58 313.89 50.24Q311.47 50.90 308.81 50.90Q302.03 50.90 298.22 47.23Q294.41 43.55 294.41 36.79Q294.41 30.10 298.06 26.17Q301.71 22.24 307.67 22.24Q313.18 22.24 316.17 25.46Q319.17 28.69 319.17 34.62L319.17 37.11M314.70 33.59Q314.67 29.98 312.88 28.00Q311.08 26.03 307.42 26.03Q303.74 26.03 301.55 28.20Q299.37 30.37 299.07 33.59L314.70 33.59ZM347.31 50.27L342.75 50.27L342.75 47.36Q342.14 47.78 341.10 48.52Q340.06 49.27 339.09 49.71Q337.94 50.27 336.45 50.65Q334.96 51.03 332.96 51.03Q329.27 51.03 326.71 48.58Q324.15 46.14 324.15 42.36Q324.15 39.26 325.48 37.34Q326.81 35.42 329.27 34.33Q331.76 33.23 335.25 32.84Q338.75 32.45 342.75 32.25L342.75 31.54Q342.75 29.98 342.20 28.96Q341.65 27.93 340.63 27.34Q339.65 26.78 338.28 26.59Q336.91 26.39 335.42 26.39Q333.62 26.39 331.40 26.87Q329.17 27.34 326.81 28.25L326.56 28.25L326.56 23.58Q327.91 23.22 330.44 22.78Q332.98 22.34 335.45 22.34Q338.33 22.34 340.47 22.81Q342.60 23.29 344.17 24.44Q345.70 25.56 346.51 27.34Q347.31 29.13 347.31 31.76L347.31 50.27M342.75 43.55L342.75 35.96Q340.65 36.08 337.81 36.33Q334.96 36.57 333.30 37.04Q331.32 37.60 330.10 38.78Q328.88 39.97 328.88 42.04Q328.88 44.38 330.30 45.57Q331.71 46.75 334.62 46.75Q337.04 46.75 339.04 45.81Q341.04 44.87 342.75 43.55ZM373.17 28.00L372.92 28.00Q371.90 27.76 370.94 27.65Q369.97 27.54 368.65 27.54Q366.53 27.54 364.55 28.48Q362.57 29.42 360.74 30.91L360.74 50.27L356.15 50.27L356.15 23.00L360.74 23.00L360.74 27.03Q363.48 24.83 365.56 23.91Q367.65 23.00 369.82 23.00Q371.02 23.00 371.56 23.06Q372.09 23.12 373.17 23.29L373.17 28.00ZM397.66 48.56Q395.36 49.66 393.30 50.27Q391.24 50.88 388.92 50.88Q385.96 50.88 383.50 50.01Q381.03 49.15 379.27 47.39Q377.49 45.63 376.51 42.94Q375.54 40.26 375.54 36.67Q375.54 29.98 379.21 26.17Q382.89 22.36 388.92 22.36Q391.26 22.36 393.52 23.02Q395.78 23.68 397.66 24.63L397.66 29.74L397.41 29.74Q395.31 28.10 393.08 27.22Q390.84 26.34 388.72 26.34Q384.81 26.34 382.56 28.97Q380.30 31.59 380.30 36.67Q380.30 41.60 382.51 44.25Q384.72 46.90 388.72 46.90Q390.11 46.90 391.55 46.53Q392.99 46.17 394.14 45.58Q395.14 45.07 396.02 44.49Q396.90 43.92 397.41 43.51L397.66 43.51L397.66 48.56ZM426.34 50.27L421.75 50.27L421.75 34.74Q421.75 32.86 421.53 31.21Q421.31 29.57 420.73 28.64Q420.12 27.61 418.97 27.11Q417.82 26.61 415.99 26.61Q414.11 26.61 412.06 27.54Q410.01 28.47 408.13 29.91L408.13 50.27L403.54 50.27L403.54 12.28L408.13 12.28L408.13 26.03Q410.28 24.24 412.57 23.24Q414.87 22.24 417.29 22.24Q421.70 22.24 424.02 24.90Q426.34 27.56 426.34 32.57L426.34 50.27ZM481.79 50.27L476.64 50.27L473.07 40.14L457.35 40.14L453.78 50.27L448.88 50.27L462.11 13.92L468.55 13.92L481.79 50.27M471.58 35.99L465.21 18.14L458.81 35.99L471.58 35.99ZM510.94 36.30Q510.94 39.62 509.99 42.37Q509.03 45.12 507.30 47.02Q505.69 48.83 503.50 49.82Q501.32 50.81 498.88 50.81Q496.75 50.81 495.03 50.34Q493.31 49.88 491.53 48.90L491.53 60.33L486.94 60.33L486.94 23.00L491.53 23.00L491.53 25.85Q493.36 24.32 495.64 23.28Q497.92 22.24 500.51 22.24Q505.44 22.24 508.19 25.96Q510.94 29.69 510.94 36.30M506.20 36.43Q506.20 31.49 504.52 29.05Q502.83 26.61 499.34 26.61Q497.36 26.61 495.36 27.47Q493.36 28.32 491.53 29.71L491.53 45.17Q493.48 46.04 494.89 46.36Q496.29 46.68 498.07 46.68Q501.90 46.68 504.05 44.09Q506.20 41.50 506.20 36.43ZM542.09 36.30Q542.09 39.62 541.14 42.37Q540.19 45.12 538.45 47.02Q536.84 48.83 534.66 49.82Q532.47 50.81 530.03 50.81Q527.91 50.81 526.18 50.34Q524.46 49.88 522.68 48.90L522.68 60.33L518.09 60.33L518.09 23.00L522.68 23.00L522.68 25.85Q524.51 24.32 526.79 23.28Q529.08 22.24 531.67 22.24Q536.60 22.24 539.34 25.96Q542.09 29.69 542.09 36.30M537.35 36.43Q537.35 31.49 535.67 29.05Q533.98 26.61 530.49 26.61Q528.52 26.61 526.51 27.47Q524.51 28.32 522.68 29.71L522.68 45.17Q524.63 46.04 526.04 46.36Q527.44 46.68 529.22 46.68Q533.06 46.68 535.21 44.09Q537.35 41.50 537.35 36.43Z"/></g><g transform="translate(0, 60.498046875)"><path d=""/></g></g></g></svg>